<svg xmlns="http://www.w3.org/2000/svg" xml:space="preserve" width="311.07849" height="400" viewBox="0 0 311.07849 399.99999"><g style="fill:#211305;fill-opacity:1"><path d="M0 0c-1.396-.535-2.155-1.617-2.182-3.08-.029-1.462 1.65-30.324 1.842-34.796.34-7.676 4.997-16.397 22.891-26.385 2.529-1.444 3.827-.445 4.985 0 17.891 9.988 22.548 18.709 22.885 26.385.198 4.472 1.874 33.334 1.848 34.796-.027 1.463-.813 2.485-2.185 3.08C38.504 5.018 21.31 8.143 0 0" style="fill:#211305;fill-opacity:1;fill-rule:nonzero;stroke:none" transform="matrix(5.71293 0 0 -5.71293 12.468 28.582)"/></g><g style="fill:#ffe475;fill-opacity:1"><path d="m0 0 .076 1.879c-24.405 11.575-49.978 0-49.978 0s.025-.57.064-1.555a3.158 3.158 0 0 1-.024-.351c-.013-.608.278-6.519.618-13.194.17-3.534.352-7.17.527-10.276.224-4.368.411-7.971.467-9.268.205-4.666 2.185-9.742 8.256-15.299 2.94-2.915 7.028-5.935 12.737-8.866.051-.028.101-.057.153-.084l.026-.009c.703-.355 1.419-.711 2.165-1.066l.047.025c.532.252 1.052.507 1.561.762.123.058.259.125.402.199 5.901 2.996 10.09 6.082 13.094 9.062 6.066 5.548 8.056 10.613 8.26 15.276C-1.367-28.65.059-1.826.037-.479A4.62 4.62 0 0 1 0 0" style="fill:#ffe475;fill-opacity:1;fill-rule:nonzero;stroke:none" transform="matrix(5.71293 0 0 -5.71293 297.863 54.19)"/></g><g style="fill:#211305;fill-opacity:1"><path d="m0 0 20.453 48.852L40.906 0Z" style="fill:#211305;fill-opacity:1;fill-rule:nonzero;stroke:none" transform="matrix(5.71293 0 0 -5.71293 38.692 293.215)"/></g><path d="M0 0h-.216l-.318 27.794h.002c0 .235.19.428.427.428a.427.427 0 0 0 .423-.428h.007Zm2.436-.96v.978H.761l1.593 28.216-2.459 4.043-2.463-4.043L-.98.018h-1.672V-.96h1.598v-5.054h-.635v-.911h3.162v.911H.84V-.96z" style="fill:#fff;fill-opacity:1;fill-rule:nonzero;stroke:none" transform="matrix(5.71293 0 0 -5.71293 156.41 237.71)"/><path d="M0 0c-.83-.804-1.835-1.575-3.016-2.312a22.217 22.217 0 0 0-4.09-2.015c-1.371-.501-2.42-.83-3.149-.988l-2.677 3.319c.88.211 2.099.606 3.658 1.186a19.291 19.291 0 0 1 4.411 2.331C-3.431 2.522-2.4 3.662-1.772 4.939c.628 1.278.942 2.549.942 3.814v1.225h4.977V8.753c0-1.265.32-2.536.961-3.814.641-1.277 1.678-2.417 3.111-3.418A20.03 20.03 0 0 1 12.667-.81c1.559-.58 2.765-.975 3.62-1.186L13.61-5.315c-.73.158-1.778.487-3.148.988-1.37.5-2.733 1.172-4.091 2.015C5.215-1.575 4.209-.804 3.355 0 2.5.803 1.935 1.482 1.659 2.035 1.382 1.482.829.803 0 0m3.808-12.349v-12.448H-.716v12.448H-14.93v3.991h33.177v-3.991z" style="fill:#231f20;fill-opacity:1;fill-rule:nonzero;stroke:none" transform="matrix(5.71293 0 0 -5.71293 491.595 112.709)"/><path d="M0 0v3.99h14.213v7.114H4.335v16.874h24.808v-3.992H8.86v-8.891h20.547v-3.991H18.888V3.99h14.289V0Z" style="fill:#231f20;fill-opacity:1;fill-rule:nonzero;stroke:none" transform="matrix(5.71293 0 0 -5.71293 600.146 232.471)"/><path d="M0 0v-8.694h-4.373v20.668H0V4.07h4.562V0Zm-6.24-14.286c-1.471.541-3.4.81-5.787.81-2.438 0-4.386-.269-5.844-.81-1.458-.539-2.186-1.283-2.186-2.233 0-.948.728-1.691 2.186-2.232 1.458-.539 3.406-.811 5.844-.811 2.387 0 4.316.272 5.787.811 1.47.541 2.205 1.284 2.205 2.232 0 .95-.735 1.694-2.205 2.233M-14.515 1.62h-8.256v-4.624h8.256zM-2.47-21.379c-2.2-1.265-5.397-1.897-9.594-1.897-4.173 0-7.353.632-9.539 1.897-2.187 1.265-3.28 2.899-3.28 4.9 0 1.976 1.093 3.609 3.28 4.9 2.186 1.291 5.366 1.937 9.539 1.937 4.197 0 7.394-.646 9.594-1.937 2.199-1.291 3.299-2.924 3.299-4.9 0-2.001-1.1-3.635-3.299-4.9M-27.145-7.153v17.862h4.374V5.73h8.256v4.979h4.372V-7.153Z" style="fill:#231f20;fill-opacity:1;fill-rule:nonzero;stroke:none" transform="matrix(5.71293 0 0 -5.71293 959.187 124.11)"/><path d="M999.414 412.6h18.74v-149h-18.74zm-73.817-23.368c-3.016-3.724-4.525-7.563-4.525-11.513s1.509-7.76 4.525-11.428c3.012-3.672 7.802-5.501 14.375-5.501 6.676 0 11.496 1.83 14.457 5.501 2.96 3.668 4.439 7.477 4.439 11.428 0 3.95-1.479 7.79-4.44 11.513-2.96 3.727-7.78 5.591-14.456 5.591-6.573 0-11.363-1.864-14.375-5.591m27.94 19.388c4.092-1.298 7.7-3.077 10.828-5.33 4.413-3.162 7.777-7.032 10.095-11.599 2.313-4.572 3.475-9.345 3.475-14.31 0-4.517-.947-8.776-2.833-12.782-1.88-4.01-4.601-7.481-8.153-10.412-3.231-2.828-7.109-5.026-11.633-6.607-4.52-1.581-9.641-2.37-15.344-2.37-4.85 0-9.32.596-13.411 1.779-4.092 1.187-7.7 2.849-10.819 4.996-4.31 3.046-7.674 6.774-10.095 11.174-2.425 4.4-3.637 9.144-3.637 14.221 0 4.855 1.105 9.456 3.312 13.801 2.206 4.345 5.304 8.098 9.289 11.26 3.124 2.597 6.838 4.598 11.144 6.012 4.307 1.41 9.045 2.116 14.217 2.116 4.953 0 9.474-.651 13.565-1.95m16.56-92.193c-10.501-.677-18.175-1.015-23.02-1.015v-48.422h-18.575v48.254h-37.8v17.272h43.94c9.473 0 20.918.531 34.325 1.607 13.41 1.07 21.942 2 25.6 2.793v-17.438c-5.814-1.359-13.967-2.374-24.47-3.051" style="fill:#231f20;fill-opacity:1;fill-rule:nonzero;stroke:none;stroke-width:4.28469" transform="matrix(1.33333 0 0 -1.33333 -192.02 605.838)"/><path d="M0 0v-16.953h-4.373v34.775H0V4.229h4.788V0Zm-9.765-10.274a33.16 33.16 0 0 0-2.526 1.719c-.904.671-1.835 1.547-2.789 2.627a22.028 22.028 0 0 0-1.848 2.431 23.146 23.146 0 0 0-1.357 2.391 14.036 14.036 0 0 0-1.508-2.747 44.6 44.6 0 0 0-2.225-2.865 16.795 16.795 0 0 0-2.261-2.253 49.809 49.809 0 0 0-2.564-1.935l-3.318 2.963a27.112 27.112 0 0 1 4.015 3.201A17.651 17.651 0 0 1-23.11-.83a17.305 17.305 0 0 1 1.96 5.276c.351 1.83.528 3.734.528 5.71v5.73h4.561v-5.73c0-1.502.189-3.366.566-5.592.377-2.226 1.143-4.156 2.3-5.789 1.03-1.422 2.073-2.588 3.129-3.497 1.055-.909 2.098-1.667 3.128-2.272z" style="fill:#231f20;fill-opacity:1;fill-rule:nonzero;stroke:none" transform="matrix(5.71293 0 0 -5.71293 1347.304 157.522)"/><path d="M0 0v6.836h-5.504v3.715H0v2.687h-5.504v3.715H0v4.307h4.374V0Zm-14.231-5.197c-1.546-.513-2.32-1.244-2.32-2.193 0-.895.774-1.606 2.32-2.133 1.545-.527 3.562-.791 6.05-.791 2.438 0 4.411.264 5.919.791S0-8.272 0-7.35c0 .922-.754 1.64-2.262 2.153-1.508.514-3.481.772-5.919.772-2.488 0-4.505-.258-6.05-.772M1.452-2.568C3.676-3.833 4.788-5.427 4.788-7.35c0-1.949-1.112-3.55-3.336-4.802-2.224-1.25-5.448-1.877-9.671-1.877-4.197 0-7.408.627-9.632 1.877-2.224 1.252-3.337 2.853-3.337 4.802 0 1.923 1.113 3.517 3.337 4.782 2.224 1.264 5.435 1.896 9.632 1.896 4.223 0 7.447-.632 9.671-1.896M-9.331 1.186a94.212 94.212 0 0 0-6.73-.316l-7.69-.04v11.341h11.8v3.478h-11.8v3.952h16.174V8.338h-11.801V4.742l5.127.04c1.608.026 3.399.124 5.373.296 1.973.171 3.563.336 4.769.494V1.739c-1.257-.185-2.997-.369-5.222-.553" style="fill:#231f20;fill-opacity:1;fill-rule:nonzero;stroke:none" transform="matrix(5.71293 0 0 -5.71293 1523.914 177.163)"/><path d="M1426.195 376.026h-68.006v-16.595h68.006zm-86.744-33.356v67.39h18.738v-17.44h68.006v17.44h18.741v-67.39zm61.704-30.983V263.6h-19.058v48.087h-61.061v17.1h142.153v-17.1Z" style="fill:#231f20;fill-opacity:1;fill-rule:nonzero;stroke:none;stroke-width:4.28469" transform="matrix(1.33333 0 0 -1.33333 -192.02 605.838)"/><path d="M0 0c-.311 1.265-1.097 2.163-2.637 2.163-2.267 0-3.216-2.056-3.216-4.142 0-2.086.949-4.142 3.216-4.142 1.659 0 2.533 1.264 2.696 2.848h1.808C1.704-5.877-.074-7.674-2.637-7.674c-3.156 0-5.068 2.572-5.068 5.695 0 3.091 1.912 5.696 5.068 5.696 2.4 0 4.252-1.371 4.489-3.717z" style="fill:#6d757a;fill-opacity:1;fill-rule:nonzero;stroke:none" transform="matrix(5.71293 0 0 -5.71293 465.075 322.818)"/><path d="M0 0h3.23L1.645 4.675H1.6Zm.652 6.548h1.971L6.697-4.325H4.711l-.992 2.879H-.504l-.993-2.879h-1.911z" style="fill:#6d757a;fill-opacity:1;fill-rule:nonzero;stroke:none" transform="matrix(5.71293 0 0 -5.71293 501.9 340.475)"/><path d="M0 0h2.711c.831 0 1.852.426 1.852 1.797 0 1.432-.844 1.797-1.822 1.797H0Zm-1.852 5.146h4.667c3.022 0 3.601-2.009 3.601-3.365 0-1.355-.579-3.335-3.601-3.335H0v-4.173h-1.852z" style="fill:#6d757a;fill-opacity:1;fill-rule:nonzero;stroke:none" transform="matrix(5.71293 0 0 -5.71293 560.563 332.47)"/><path d="M601.897 227.077h7.94V180.49h-7.94z" style="fill:#6d757a;fill-opacity:1;fill-rule:nonzero;stroke:none;stroke-width:4.28469" transform="matrix(1.33333 0 0 -1.33333 -192.02 605.838)"/><path d="M0 0h8.564v-1.645H5.201v-9.228H3.349v9.228H0Z" style="fill:#6d757a;fill-opacity:1;fill-rule:nonzero;stroke:none" transform="matrix(5.71293 0 0 -5.71293 632.346 303.068)"/><path d="M0 0h3.23L1.645 4.675h-.044Zm.652 6.548h1.971L6.697-4.325H4.712l-.993 2.879H-.504l-.992-2.879h-1.911z" style="fill:#6d757a;fill-opacity:1;fill-rule:nonzero;stroke:none" transform="matrix(5.71293 0 0 -5.71293 697.018 340.475)"/><path d="M0 0h1.853v-9.229H7.23v-1.644H0Z" style="fill:#6d757a;fill-opacity:1;fill-rule:nonzero;stroke:none" transform="matrix(5.71293 0 0 -5.71293 745.103 303.068)"/><path d="M0 0h1.822c2.904 0 3.527 1.69 3.527 3.884 0 2.192-.623 3.883-3.527 3.883H0Zm-1.853 9.319h4.386c3.26 0 4.667-2.435 4.667-5.435 0-3-1.407-5.438-4.667-5.438h-4.386z" style="fill:#6d757a;fill-opacity:1;fill-rule:nonzero;stroke:none" transform="matrix(5.71293 0 0 -5.71293 835.936 356.308)"/><path d="M0 0h7.615v-1.645H1.853v-2.847h5.333v-1.553H1.853v-3.184H7.72v-1.644H0Z" style="fill:#6d757a;fill-opacity:1;fill-rule:nonzero;stroke:none" transform="matrix(5.71293 0 0 -5.71293 890.532 303.068)"/><path d="M0 0h7.305v-1.645H1.853v-2.847h4.785v-1.553H1.853v-4.828H0Z" style="fill:#6d757a;fill-opacity:1;fill-rule:nonzero;stroke:none" transform="matrix(5.71293 0 0 -5.71293 947.929 303.068)"/><path d="M0 0h7.615v-1.645H1.853v-2.847h5.333v-1.553H1.853v-3.184H7.72v-1.644H0Z" style="fill:#6d757a;fill-opacity:1;fill-rule:nonzero;stroke:none" transform="matrix(5.71293 0 0 -5.71293 1002.19 303.068)"/><path d="M0 0h1.956l4.83-8.01h.029V0h1.764v-10.873H6.623L1.808-2.878h-.044v-7.995H0Z" style="fill:#6d757a;fill-opacity:1;fill-rule:nonzero;stroke:none" transform="matrix(5.71293 0 0 -5.71293 1059.158 303.068)"/><path d="M0 0c0-1.66 1.2-2.33 2.682-2.33 1.63 0 2.237.838 2.237 1.644 0 .838-.444 1.173-.874 1.34-.756.289-1.69.489-3.156.899-1.823.488-2.341 1.63-2.341 2.757 0 2.192 1.956 3.198 3.867 3.198 2.193 0 4.06-1.203 4.06-3.473H4.623C4.52 5.437 3.63 5.954 2.341 5.954 1.481 5.954.4 5.635.4 4.537c0-.775.504-1.172 1.259-1.4.163-.045 2.504-.67 3.053-.838C6.09 1.857 6.771.686 6.771-.473c0-2.435-2.119-3.41-4.208-3.41C.148-3.883-1.808-2.695-1.852 0z" style="fill:#6d757a;fill-opacity:1;fill-rule:nonzero;stroke:none" transform="matrix(5.71293 0 0 -5.71293 1131.702 344.475)"/><path d="M0 0h7.615v-1.645H1.853v-2.847h5.333v-1.553H1.853v-3.184H7.72v-1.644H0Z" style="fill:#6d757a;fill-opacity:1;fill-rule:nonzero;stroke:none" transform="matrix(5.71293 0 0 -5.71293 1183.682 303.068)"/><path d="M0 0c-.312 1.265-1.097 2.163-2.638 2.163-2.266 0-3.215-2.056-3.215-4.142 0-2.086.949-4.142 3.215-4.142 1.66 0 2.534 1.264 2.698 2.848h1.807C1.704-5.877-.074-7.674-2.638-7.674c-3.155 0-5.066 2.572-5.066 5.695 0 3.091 1.911 5.696 5.066 5.696 2.401 0 4.253-1.371 4.49-3.717z" style="fill:#6d757a;fill-opacity:1;fill-rule:nonzero;stroke:none" transform="matrix(5.71293 0 0 -5.71293 1309.473 322.818)"/><path d="M0 0c0-2.087.948-4.143 3.215-4.143S6.431-2.087 6.431 0c0 2.086-.949 4.142-3.216 4.142C.948 4.142 0 2.086 0 0m8.282 0c0-3.123-1.911-5.695-5.067-5.695C.06-5.695-1.852-3.123-1.852 0c0 3.091 1.912 5.695 5.067 5.695 3.156 0 5.067-2.604 5.067-5.695" style="fill:#6d757a;fill-opacity:1;fill-rule:nonzero;stroke:none" transform="matrix(5.71293 0 0 -5.71293 1341.217 334.12)"/><path d="M0 0h2.607l2.919-8.512h.03L8.4 0h2.579v-10.873H9.216v8.391h-.03l-2.934-8.391H4.727L1.793-2.482h-.03v-8.391H0Z" style="fill:#6d757a;fill-opacity:1;fill-rule:nonzero;stroke:none" transform="matrix(5.71293 0 0 -5.71293 1402.084 303.068)"/><path d="M0 0h2.607l2.919-8.512h.03L8.4 0h2.579v-10.873H9.216v8.391h-.03l-2.934-8.391H4.727L1.793-2.482h-.03v-8.391H0Z" style="fill:#6d757a;fill-opacity:1;fill-rule:nonzero;stroke:none" transform="matrix(5.71293 0 0 -5.71293 1481.402 303.068)"/><path d="M0 0h3.23L1.645 4.675h-.044Zm.652 6.548h1.971L6.697-4.325H4.712l-.993 2.879H-.504l-.992-2.879h-1.911z" style="fill:#6d757a;fill-opacity:1;fill-rule:nonzero;stroke:none" transform="matrix(5.71293 0 0 -5.71293 1573.327 340.475)"/><path d="M0 0h1.956l4.83-8.01h.029V0h1.764v-10.873H6.623L1.808-2.878h-.044v-7.995H0Z" style="fill:#6d757a;fill-opacity:1;fill-rule:nonzero;stroke:none" transform="matrix(5.71293 0 0 -5.71293 1620.989 303.068)"/><path d="M0 0h1.822c2.904 0 3.527 1.69 3.527 3.884 0 2.192-.623 3.883-3.527 3.883H0Zm-1.853 9.319h4.386c3.26 0 4.667-2.435 4.667-5.435 0-3-1.407-5.438-4.667-5.438h-4.386z" style="fill:#6d757a;fill-opacity:1;fill-rule:nonzero;stroke:none" transform="matrix(5.71293 0 0 -5.71293 1697.176 356.308)"/></svg>